<svg id="Layer_1" data-name="Layer 1" xmlns="http://www.w3.org/2000/svg" xmlns:xlink="http://www.w3.org/1999/xlink" viewBox="0 0 1314.4 256"><defs><style>.cls-1{fill:url(#linear-gradient);}.cls-2{opacity:0.32;}.cls-3{fill:url(#linear-gradient-2);}.cls-4{fill:url(#New_Gradient_Swatch_2);}.cls-5{fill:url(#New_Gradient_Swatch_2-2);}.cls-6{fill:url(#New_Gradient_Swatch_2-3);}.cls-7{fill:url(#New_Gradient_Swatch_2-4);}.cls-8{fill:url(#New_Gradient_Swatch_2-5);}.cls-9{fill:url(#New_Gradient_Swatch_2-6);}.cls-10{fill:url(#New_Gradient_Swatch_2-7);}.cls-11{fill:url(#New_Gradient_Swatch_2-8);}.cls-12{fill:url(#New_Gradient_Swatch_2-9);}</style><linearGradient id="linear-gradient" x1="232.21" y1="217.46" x2="24.13" y2="42.82" gradientTransform="matrix(1, 0, 0, -1, 0, 258)" gradientUnits="userSpaceOnUse"><stop offset="0" stop-color="#5586cf"/><stop offset="1" stop-color="#3b74c9"/></linearGradient><linearGradient id="linear-gradient-2" x1="65.9" y1="91.86" x2="183.91" y2="187.86" gradientTransform="matrix(1, 0, 0, -1, 0, 258)" gradientUnits="userSpaceOnUse"><stop offset="0" stop-color="#bbceec"/><stop offset="1" stop-color="#fff"/></linearGradient><linearGradient id="New_Gradient_Swatch_2" x1="315.95" y1="131.66" x2="461.25" y2="131.66" gradientTransform="matrix(1, 0, 0, 1, 0, 0)" xlink:href="#linear-gradient"/><linearGradient id="New_Gradient_Swatch_2-2" x1="487.62" y1="150.41" x2="579.67" y2="150.41" gradientTransform="matrix(1, 0, 0, 1, 0, 0)" xlink:href="#linear-gradient"/><linearGradient id="New_Gradient_Swatch_2-3" x1="597.34" y1="150.41" x2="682.86" y2="150.41" gradientTransform="matrix(1, 0, 0, 1, 0, 0)" xlink:href="#linear-gradient"/><linearGradient id="New_Gradient_Swatch_2-4" x1="703.23" y1="150.41" x2="788.75" y2="150.41" gradientTransform="matrix(1, 0, 0, 1, 0, 0)" xlink:href="#linear-gradient"/><linearGradient id="New_Gradient_Swatch_2-5" x1="809.81" y1="150.41" x2="899.35" y2="150.41" gradientTransform="matrix(1, 0, 0, 1, 0, 0)" xlink:href="#linear-gradient"/><linearGradient id="New_Gradient_Swatch_2-6" x1="924.62" y1="149.41" x2="1009.96" y2="149.41" gradientTransform="matrix(1, 0, 0, 1, 0, 0)" xlink:href="#linear-gradient"/><linearGradient id="New_Gradient_Swatch_2-7" x1="1033.52" y1="170.76" x2="1125.18" y2="170.76" gradientTransform="matrix(1, 0, 0, 1, 0, 0)" xlink:href="#linear-gradient"/><linearGradient id="New_Gradient_Swatch_2-8" x1="1148.44" y1="150.41" x2="1240.49" y2="150.41" gradientTransform="matrix(1, 0, 0, 1, 0, 0)" xlink:href="#linear-gradient"/><linearGradient id="New_Gradient_Swatch_2-9" x1="1261.95" y1="149.41" x2="1314.4" y2="149.41" gradientTransform="matrix(1, 0, 0, 1, 0, 0)" xlink:href="#linear-gradient"/></defs><circle class="cls-1" cx="128" cy="128" r="128"/><g class="cls-2"><path d="M214,131.34C214,168.7,175.5,199,128,199a110.23,110.23,0,0,1-16.53-1.25l-3.1,2.53c-3.1,2.53-7.08,7.18-19.08,11.6s-20.44-.69-20.44-.69a23.31,23.31,0,0,0,8.31-9.64c2-4.19,1.48-10.92.9-15.13C56.24,174.13,42,154,42,131.34,42,94,80.51,63.71,128,63.71S214,94,214,131.34Z"/></g><path class="cls-3" d="M214,115.61c0,37.36-38.5,67.64-86,67.64A108.93,108.93,0,0,1,111.47,182l-3.1,2.53c-3.1,2.53-7.08,7.18-19.08,11.6s-20.44-.69-20.44-.69a23.31,23.31,0,0,0,8.31-9.64c2-4.19,1.48-10.92.9-15.13C56.24,158.4,42,138.32,42,115.61,42,78.26,80.51,48,128,48S214,78.26,214,115.61Z"/><path class="cls-4" d="M342.8,63.6l44.5,111.07a1.34,1.34,0,0,0,2.49,0l45-112.25a6,6,0,0,1,5.57-3.77h14.91a6,6,0,0,1,6,6v134a6,6,0,0,1-6,6H448a6,6,0,0,1-6-6V147.8l1.59-53.91a1.34,1.34,0,0,0-2.59-.54l-43.6,107.56a6,6,0,0,1-5.56,3.75h-6.66a6,6,0,0,1-5.56-3.75L336.11,93.68a1.34,1.34,0,0,0-2.58.55l1.67,53.57v50.86a6,6,0,0,1-6,6H322a6,6,0,0,1-6-6v-134a6,6,0,0,1,6-6h13.54A7.88,7.88,0,0,1,342.8,63.6Z"/><path class="cls-5" d="M537.36,206.66q-22.07,0-35.9-14.49t-13.84-38.75V150q0-16.15,6.17-28.83A48.13,48.13,0,0,1,511,101.32a43.39,43.39,0,0,1,24-7.17q21.16,0,32.89,13.94T579.67,148v1.72a6,6,0,0,1-6,6H514.49a7.48,7.48,0,0,0-7.31,9,35.14,35.14,0,0,0,8.37,16.88q9,9.88,22.81,9.88,9.82,0,16.65-4a41,41,0,0,0,7.63-5.81,7.47,7.47,0,0,1,9.79-.54h0a7.45,7.45,0,0,1,1,10.89Q560.13,206.66,537.36,206.66Zm-2.31-97.26a24.73,24.73,0,0,0-18.85,8.17,33.92,33.92,0,0,0-7.41,13.26,7.47,7.47,0,0,0,7.15,9.65h45.18v-1.14c0-.17,0-.35,0-.53q-.86-14-7.61-21.64T535.05,109.4Z"/><path class="cls-6" d="M664.31,175.88a13.64,13.64,0,0,0-5.67-11.68Q653,160,638.89,157t-22.36-7.22q-8.28-4.22-12.24-10a24,24,0,0,1-4-13.84q0-13.34,11.28-22.56t28.83-9.23q18.45,0,29.93,9.53A30.19,30.19,0,0,1,681.1,120.8a6,6,0,0,1-5.87,7.25h-5.94c-3.55,0-5.95-1.72-6.64-4.28a17.64,17.64,0,0,0-5.91-8.86q-6.48-5.52-16.3-5.51-10.12,0-15.84,4.41a13.88,13.88,0,0,0-5.72,11.53,11.25,11.25,0,0,0,5.32,10.13q5.31,3.41,19.2,6.51t22.51,7.43q8.63,4.31,12.79,10.37a25.57,25.57,0,0,1,4.16,14.79,27.78,27.78,0,0,1-11.63,23.32q-11.64,8.78-30.19,8.77A54.68,54.68,0,0,1,618,202.05a37.36,37.36,0,0,1-15.69-12.89,32.08,32.08,0,0,1-4.78-10.47,6,6,0,0,1,5.84-7.42h6.7a6,6,0,0,1,5.8,4.53,18.8,18.8,0,0,0,6.79,10.26q7,5.46,18.4,5.46,10.53,0,16.9-4.26T664.31,175.88Z"/><path class="cls-7" d="M770.2,175.88a13.64,13.64,0,0,0-5.67-11.68Q758.88,160,744.78,157t-22.36-7.22q-8.28-4.22-12.24-10a24,24,0,0,1-4-13.84q0-13.34,11.28-22.56t28.83-9.23q18.45,0,29.94,9.53A30.17,30.17,0,0,1,787,120.8a6,6,0,0,1-5.87,7.25h-5.94c-3.55,0-5.95-1.72-6.64-4.28a17.64,17.64,0,0,0-5.91-8.86q-6.46-5.52-16.3-5.51-10.12,0-15.84,4.41a13.88,13.88,0,0,0-5.72,11.53,11.25,11.25,0,0,0,5.32,10.13q5.31,3.41,19.2,6.51t22.51,7.43q8.63,4.31,12.79,10.37a25.57,25.57,0,0,1,4.16,14.79,27.78,27.78,0,0,1-11.63,23.32q-11.64,8.78-30.19,8.77a54.72,54.72,0,0,1-23.06-4.61,37.42,37.42,0,0,1-15.69-12.89,32.08,32.08,0,0,1-4.78-10.47,6,6,0,0,1,5.84-7.42h6.7a6,6,0,0,1,5.81,4.53,18.73,18.73,0,0,0,6.78,10.26q7,5.46,18.4,5.46,10.53,0,16.9-4.26T770.2,175.88Z"/><path class="cls-8" d="M878.39,199.93c-.27-1.2-.51-2.56-.74-4.08a1.34,1.34,0,0,0-2.24-.76,41,41,0,0,1-29,11.57q-16,0-26.32-9.07a29.34,29.34,0,0,1-10.28-23q0-16.94,12.88-26.32t36.25-9.37h16.71a1.34,1.34,0,0,0,1.34-1.35v-7.18q0-9.72-5.81-15.49T854,109.09q-9.93,0-16.65,5a16.1,16.1,0,0,0-6.11,8,5.91,5.91,0,0,1-5.68,4.09h-6.47a6,6,0,0,1-5.68-7.93,29.44,29.44,0,0,1,4.34-7.76,39.41,39.41,0,0,1,15.64-12,52.66,52.66,0,0,1,21.71-4.41q18.75,0,29.38,9.38t11,25.82v49.94q0,14.75,3.71,23.52a1.25,1.25,0,0,1,.1.51h0a1.34,1.34,0,0,1-1.34,1.34H884.25A6,6,0,0,1,878.39,199.93Zm-29.27-9.41A32.67,32.67,0,0,0,865.66,186a27.39,27.39,0,0,0,11.19-11.44A1.48,1.48,0,0,0,877,174v-20.6a1.34,1.34,0,0,0-1.34-1.34h-13.2q-34.1,0-34.09,20,0,8.72,5.81,13.63T849.12,190.52Z"/><path class="cls-9" d="M942.42,101.89l.35,7.91q12.43-15.64,32.49-15.65,34.4,0,34.7,38.81v65.7a6,6,0,0,1-6,6h-6.55a6,6,0,0,1-6-6v-65.8q-.1-11.73-5.37-17.35t-16.39-5.61a26.78,26.78,0,0,0-15.85,4.81,32.62,32.62,0,0,0-10.48,12.34,1.35,1.35,0,0,0-.15.62v71a6,6,0,0,1-6,6h-6.55a6,6,0,0,1-6-6v-96.5a6,6,0,0,1,6-6h5.81A6,6,0,0,1,942.42,101.89Z"/><path class="cls-10" d="M1033.52,149.5q0-25.36,11.74-40.36t31.08-15q18.08,0,28.92,11.64a1.34,1.34,0,0,0,2.31-.83l.24-3.25a6,6,0,0,1,6-5.55h5.38a6,6,0,0,1,6,6v99.89q0,21.06-12.49,33.19t-33.54,12.14a55.82,55.82,0,0,1-23-5,42,42,0,0,1-13.75-9.49,6,6,0,0,1-.14-8l2-2.29a6,6,0,0,1,8.66-.42,35,35,0,0,0,24.91,10.09q13.53,0,21.1-7.62t7.58-21.46v-6a1.34,1.34,0,0,0-2.3-.94q-10.76,10.4-28.09,10.4-19,0-30.83-15.34T1033.52,149.5Zm18.66,2.11q0,18.34,7.52,28.83t21,10.48q17.38,0,25.62-15.64a1.44,1.44,0,0,0,.16-.64V125.8a1.36,1.36,0,0,0-.18-.68q-8.52-15.23-25.39-15.22-13.55,0-21.16,10.53T1052.18,151.61Z"/><path class="cls-11" d="M1198.18,206.66q-22.07,0-35.9-14.49t-13.84-38.75V150q0-16.15,6.17-28.83a48.08,48.08,0,0,1,17.25-19.86,43.34,43.34,0,0,1,24-7.17q21.17,0,32.89,13.94T1240.49,148v1.72a6,6,0,0,1-6,6h-61a6,6,0,0,0-5.91,7,35.81,35.81,0,0,0,8.74,18.88q9,9.88,22.81,9.88,9.83,0,16.65-4a40.61,40.61,0,0,0,8.36-6.54,6.06,6.06,0,0,1,8-.61l2.25,1.75a6,6,0,0,1,.92,8.59Q1222,206.66,1198.18,206.66Zm-2.31-97.26a24.73,24.73,0,0,0-18.85,8.17,35.07,35.07,0,0,0-8,15.36,6,6,0,0,0,5.8,7.55h47.13v-1.19c0-.14,0-.29,0-.43q-.84-14-7.61-21.69T1195.87,109.4Z"/><path class="cls-12" d="M1314.4,106.18a6,6,0,0,1-6.26,6c-.94,0-1.89-.06-2.87-.06q-17.85,0-24.48,14.88a3.46,3.46,0,0,0-.29,1.39v70.29a6,6,0,0,1-6,6H1268a6,6,0,0,1-6-6v-96.5a6,6,0,0,1,6-6h8.73a3.39,3.39,0,0,1,3.4,3.32h0a3.4,3.4,0,0,0,5.75,2.38q8.14-7.71,20.35-7.71c1,0,1.88,0,2.72.1a6,6,0,0,1,5.5,6Z"/></svg>