<svg id="Layer_1" data-name="Layer 1" xmlns="http://www.w3.org/2000/svg" xmlns:xlink="http://www.w3.org/1999/xlink" viewBox="0 0 918.76 300"><defs><style>.cls-1{fill:url(#New_Gradient_Swatch);}.cls-2{opacity:0.32;}.cls-3{fill:#010101;}.cls-4{fill:url(#linear-gradient);}.cls-5{fill:url(#New_Gradient_Swatch-2);}.cls-6{fill:url(#New_Gradient_Swatch-3);}.cls-7{fill:url(#New_Gradient_Swatch-4);}.cls-8{fill:url(#New_Gradient_Swatch-5);}.cls-9{fill:url(#New_Gradient_Swatch-6);}</style><linearGradient id="New_Gradient_Swatch" x1="272.12" y1="869.51" x2="28.28" y2="1074.16" gradientTransform="translate(0 -822)" gradientUnits="userSpaceOnUse"><stop offset="0" stop-color="#5a86c5"/><stop offset="1" stop-color="#4473b9"/></linearGradient><linearGradient id="linear-gradient" x1="77.23" y1="1016.69" x2="215.52" y2="904.19" gradientTransform="translate(0 -822)" gradientUnits="userSpaceOnUse"><stop offset="0" stop-color="#bbceea"/><stop offset="1" stop-color="#fff"/></linearGradient><linearGradient id="New_Gradient_Swatch-2" x1="364.97" y1="156.27" x2="468.18" y2="156.27" gradientTransform="matrix(1, 0, 0, 1, 0, 0)" xlink:href="#New_Gradient_Swatch"/><linearGradient id="New_Gradient_Swatch-3" x1="484.66" y1="178.13" x2="599.79" y2="178.13" gradientTransform="matrix(1, 0, 0, 1, 0, 0)" xlink:href="#New_Gradient_Swatch"/><linearGradient id="New_Gradient_Swatch-4" x1="621.76" y1="201.86" x2="728.6" y2="201.86" gradientTransform="matrix(1, 0, 0, 1, 0, 0)" xlink:href="#New_Gradient_Swatch"/><linearGradient id="New_Gradient_Swatch-5" x1="761.32" y1="155.1" x2="786.92" y2="155.1" gradientTransform="matrix(1, 0, 0, 1, 0, 0)" xlink:href="#New_Gradient_Swatch"/><linearGradient id="New_Gradient_Swatch-6" x1="819.3" y1="176.96" x2="918.76" y2="176.96" gradientTransform="matrix(1, 0, 0, 1, 0, 0)" xlink:href="#New_Gradient_Swatch"/></defs><circle class="cls-1" cx="150" cy="150" r="150"/><g class="cls-2"><path class="cls-3" d="M250.78,153.91c0,43.79-45.12,79.29-100.78,79.29a129.51,129.51,0,0,1-19.37-1.46l-3.63,3c-3.64,3-8.3,8.42-22.36,13.6s-24-.81-24-.81a27.28,27.28,0,0,0,9.74-11.3c2.35-4.91,1.74-12.8,1.06-17.73-25.57-14.4-42.26-38-42.26-64.55,0-43.75,45.13-79.25,100.78-79.25S250.78,110.16,250.78,153.91Z"/></g><path class="cls-4" d="M250.78,135.48c0,43.78-45.12,79.27-100.78,79.27a128.21,128.21,0,0,1-19.37-1.47l-3.63,3c-3.64,3-8.3,8.41-22.36,13.59s-24-.81-24-.81a27.28,27.28,0,0,0,9.74-11.3c2.35-4.91,1.74-12.79,1.06-17.73-25.57-14.38-42.26-37.91-42.26-64.52,0-43.77,45.13-79.23,100.78-79.23S250.78,91.71,250.78,135.48Z"/><path class="cls-5" d="M393.53,223h68.65a6,6,0,0,1,6,6v6.35a6,6,0,0,1-6,6H371a6,6,0,0,1-6-6V77.18a6,6,0,0,1,6-6h10.56a6,6,0,0,1,6,6V217A6,6,0,0,0,393.53,223Z"/><path class="cls-6" d="M484.66,177q0-18.59,7.31-33.43a54.46,54.46,0,0,1,20.33-22.91,55.44,55.44,0,0,1,29.75-8.06q25.83,0,41.79,17.88T599.79,178v1.52q0,18.47-7.07,33.14a53.74,53.74,0,0,1-20.22,22.85q-13.15,8.17-30.22,8.18-25.71,0-41.67-17.88t-15.95-47.34Zm21.74,2.57q0,21,9.76,33.78t26.12,12.74q16.49,0,26.19-12.91t9.7-36.18q0-20.81-9.88-33.72t-26.24-12.92a31,31,0,0,0-25.83,12.74Q506.4,155.81,506.4,179.53Z"/><path class="cls-7" d="M621.76,177.08q0-29.58,13.68-47.05t36.23-17.47q17.76,0,29.52,9.62a4.49,4.49,0,0,0,7.34-3.12h0A4.49,4.49,0,0,1,713,114.9H724.1a4.5,4.5,0,0,1,4.5,4.49V238.32q0,24.56-14.56,38.69T675,291.16a65,65,0,0,1-26.77-5.85,48.36,48.36,0,0,1-16.8-11.91,6,6,0,0,1,0-7.82l3.58-4.14a6,6,0,0,1,8.76-.33q12.6,12.4,29.68,12.4,15.78,0,24.6-8.89t8.83-25V239a4.49,4.49,0,0,0-7.08-3.68q-11.52,8.42-28.34,8.41-22.22,0-35.94-17.88T621.76,177.08Zm21.74,2.45q0,21.39,8.77,33.61t24.55,12.21q19.89,0,29.5-17.58a4.42,4.42,0,0,0,.54-2.14V150.22a4.52,4.52,0,0,0-.59-2.24q-9.93-17.07-29.22-17.07-15.78,0-24.66,12.27T643.5,179.53Z"/><path class="cls-8" d="M761.32,81.35a12.85,12.85,0,0,1,3.22-8.88q3.21-3.63,9.52-3.63t9.59,3.63a12.75,12.75,0,0,1,3.27,8.88,12.36,12.36,0,0,1-3.27,8.77q-3.27,3.5-9.59,3.5t-9.52-3.5A12.46,12.46,0,0,1,761.32,81.35Zm17.38,160h-9.62a6,6,0,0,1-6-6V120.9a6,6,0,0,1,6-6h9.62a6,6,0,0,1,6,6V235.36A6,6,0,0,1,778.7,241.36Z"/><path class="cls-9" d="M840,119.55h0a4.87,4.87,0,0,0,8,3.49q12.62-10.49,30.34-10.48,40.09,0,40.44,45.23v77.57a6,6,0,0,1-6,6h-9.62a6,6,0,0,1-6-6V157.67Q897,144,890.89,137.45t-19.11-6.54a31.2,31.2,0,0,0-18.47,5.61,37.88,37.88,0,0,0-11.86,13.68,4.75,4.75,0,0,0-.53,2.22v82.94a6,6,0,0,1-6,6H825.3a6,6,0,0,1-6-6V119.77a4.87,4.87,0,0,1,4.87-4.87h10.92A4.87,4.87,0,0,1,840,119.55Z"/></svg>