<svg id="Layer_1" data-name="Layer 1" xmlns="http://www.w3.org/2000/svg" xmlns:xlink="http://www.w3.org/1999/xlink" viewBox="0 0 254.75 174.65"><defs><style>.cls-1{fill:url(#linear-gradient);}</style><linearGradient id="linear-gradient" x1="14.92" y1="102.94" x2="256.98" y2="102.94" gradientTransform="translate(-19.44 34.46) rotate(-14.3)" gradientUnits="userSpaceOnUse"><stop offset="0" stop-color="#fff"/><stop offset="1" stop-color="#eef9ff"/></linearGradient></defs><path class="cls-1" d="M39.92,128.87l58.32-24.93a1.64,1.64,0,0,0-.77-3.14L30.88,106a10.7,10.7,0,0,1-10.43-6.69L1.65,56.14c-3.36-7.69,2-16.13,9.73-15.43l233.27,21.2a11.78,11.78,0,0,1,5.48,21.52L55.46,213.71c-6.47,4.33-15.19-.53-15.92-8.89l-5.74-65A10.67,10.67,0,0,1,39.92,128.87Z" transform="translate(-0.62 -40.67)"/></svg>